<svg width="102" height="68" viewBox="0 0 102 68" fill="none" xmlns="http://www.w3.org/2000/svg">
<path d="M1.59912 51.5464C1.59912 55.4634 3.15514 59.22 5.92488 61.9897C8.69461 64.7594 12.4512 66.3155 16.3682 66.3155C20.2852 66.3155 24.0417 64.7594 26.8115 61.9897C29.5812 59.22 31.1372 55.4634 31.1372 51.5464C31.1372 47.6294 29.5812 43.8729 26.8115 41.1031C24.0417 38.3334 20.2852 36.7774 16.3682 36.7774C12.4512 36.7774 8.69461 38.3334 5.92488 41.1031C3.15514 43.8729 1.59912 47.6294 1.59912 51.5464Z" stroke="#FF6B00" stroke-width="3" stroke-linecap="round" stroke-linejoin="round"/>
<path d="M70.5229 51.5464C70.5229 55.4634 72.079 59.22 74.8487 61.9897C77.6184 64.7594 81.375 66.3155 85.292 66.3155C89.209 66.3155 92.9656 64.7594 95.7353 61.9897C98.505 59.22 100.061 55.4634 100.061 51.5464C100.061 47.6294 98.505 43.8729 95.7353 41.1031C92.9656 38.3334 89.209 36.7774 85.292 36.7774C81.375 36.7774 77.6184 38.3334 74.8487 41.1031C72.079 43.8729 70.5229 47.6294 70.5229 51.5464Z" stroke="#FF6B00" stroke-width="3" stroke-linecap="round" stroke-linejoin="round"/>
<path d="M21.2893 22.0082H72.981L53.2889 41.7003H28.6738L48.3659 22.0082" stroke="#FF6B00" stroke-width="3" stroke-linecap="round" stroke-linejoin="round"/>
<path d="M55.7544 2.31546H65.6004L72.9849 17.0845L82.831 36.7766" stroke="#FF6B00" stroke-width="3" stroke-linecap="round" stroke-linejoin="round"/>
</svg>
