<svg width="96" height="68" viewBox="0 0 96 68" fill="none" xmlns="http://www.w3.org/2000/svg">
<path d="M11.2595 56.7151C11.2595 59.1399 12.2228 61.4655 13.9374 63.1801C15.652 64.8947 17.9775 65.8579 20.4023 65.8579C22.8271 65.8579 25.1527 64.8947 26.8673 63.1801C28.5819 61.4655 29.5451 59.1399 29.5451 56.7151C29.5451 54.2903 28.5819 51.9648 26.8673 50.2502C25.1527 48.5356 22.8271 47.5723 20.4023 47.5723C17.9775 47.5723 15.652 48.5356 13.9374 50.2502C12.2228 51.9648 11.2595 54.2903 11.2595 56.7151Z" stroke="#FF6B00" stroke-width="3" stroke-linecap="round" stroke-linejoin="round"/>
<path d="M66.1169 56.7151C66.1169 59.1399 67.0802 61.4655 68.7948 63.1801C70.5094 64.8947 72.8349 65.8579 75.2597 65.8579C77.6846 65.8579 80.0101 64.8947 81.7247 63.1801C83.4393 61.4655 84.4026 59.1399 84.4026 56.7151C84.4026 54.2903 83.4393 51.9648 81.7247 50.2502C80.0101 48.5356 77.6846 47.5723 75.2597 47.5723C72.8349 47.5723 70.5094 48.5356 68.7948 50.2502C67.0802 51.9648 66.1169 54.2903 66.1169 56.7151Z" stroke="#FF6B00" stroke-width="3" stroke-linecap="round" stroke-linejoin="round"/>
<path d="M11.2585 56.7148H2.11572V6.42934C2.11572 5.21693 2.59735 4.05418 3.45466 3.19687C4.31196 2.33957 5.47471 1.85794 6.68713 1.85794H70.6868C76.7488 1.85794 82.5626 5.22934 86.8491 11.2305C91.1356 17.2316 93.5438 25.3709 93.5438 33.8578V56.7148H84.401M66.1154 56.7148H29.5441" stroke="#FF6B00" stroke-width="3" stroke-linecap="round" stroke-linejoin="round"/>
<path d="M66.1169 1.85794L72.974 33.8578H93.5454" stroke="#FF6B00" stroke-width="3" stroke-linecap="round" stroke-linejoin="round"/>
<path d="M2.11572 24.7151H70.6868" stroke="#FF6B00" stroke-width="3" stroke-linecap="round" stroke-linejoin="round"/>
<path d="M24.9734 1.85794V24.715" stroke="#FF6B00" stroke-width="3" stroke-linecap="round" stroke-linejoin="round"/>
<path d="M47.8291 1.85794V24.715" stroke="#FF6B00" stroke-width="3" stroke-linecap="round" stroke-linejoin="round"/>
</svg>
