<svg width="92" height="68" viewBox="0 0 92 68" fill="none" xmlns="http://www.w3.org/2000/svg">
<path d="M11.7 56.0121C11.7 58.6235 12.7373 61.1279 14.5838 62.9744C16.4303 64.8209 18.9347 65.8583 21.5461 65.8583C24.1575 65.8583 26.6619 64.8209 28.5084 62.9744C30.3549 61.1279 31.3923 58.6235 31.3923 56.0121C31.3923 53.4008 30.3549 50.8964 28.5084 49.0499C26.6619 47.2033 24.1575 46.166 21.5461 46.166C18.9347 46.166 16.4303 47.2033 14.5838 49.0499C12.7373 50.8964 11.7 53.4008 11.7 56.0121Z" stroke="#FF6B00" stroke-width="3" stroke-linecap="round" stroke-linejoin="round"/>
<path d="M60.9301 56.0121C60.9301 58.6235 61.9674 61.1279 63.8139 62.9744C65.6604 64.8209 68.1648 65.8583 70.7762 65.8583C73.3876 65.8583 75.892 64.8209 77.7385 62.9744C79.585 61.1279 80.6224 58.6235 80.6224 56.0121C80.6224 53.4008 79.585 50.8964 77.7385 49.0499C75.892 47.2033 73.3876 46.166 70.7762 46.166C68.1648 46.166 65.6604 47.2033 63.8139 49.0499C61.9674 50.8964 60.9301 53.4008 60.9301 56.0121Z" stroke="#FF6B00" stroke-width="3" stroke-linecap="round" stroke-linejoin="round"/>
<path d="M11.6991 56.0123H1.85291V26.4738M1.85291 26.4738L11.6991 1.85843H56.0067L75.6991 26.4738M1.85291 26.4738H75.6991M75.6991 26.4738H80.6221C83.2335 26.4738 85.7379 27.5112 87.5844 29.3577C89.4309 31.2042 90.4683 33.7086 90.4683 36.32V56.0123H80.6221M60.9298 56.0123H31.3914M46.1606 26.4738V1.85843" stroke="#FF6B00" stroke-width="3" stroke-linecap="round" stroke-linejoin="round"/>
</svg>
