<svg width="85" height="68" viewBox="0 0 85 68" fill="none" xmlns="http://www.w3.org/2000/svg">
<path d="M65.9412 40.8447C65.9412 43.1116 66.8395 45.2857 68.4384 46.8886C70.0374 48.4916 72.2061 49.3921 74.4674 49.3921C76.7287 49.3921 78.8974 48.4916 80.4964 46.8886C82.0954 45.2857 82.9937 43.1116 82.9937 40.8447C82.9937 38.5778 82.0954 36.4037 80.4964 34.8008C78.8974 33.1978 76.7287 32.2973 74.4674 32.2973C72.2061 32.2973 70.0374 33.1978 68.4384 34.8008C66.8395 36.4037 65.9412 38.5778 65.9412 40.8447Z" stroke="#FF6B00" stroke-width="3" stroke-linecap="round" stroke-linejoin="round"/>
<path d="M1.99414 57.9401C1.99414 60.207 2.89244 62.381 4.49143 63.984C6.09041 65.5869 8.2591 66.4874 10.5204 66.4874C12.7817 66.4874 14.9504 65.5869 16.5494 63.984C18.1484 62.381 19.0467 60.207 19.0467 57.9401C19.0467 55.6732 18.1484 53.4991 16.5494 51.8961C14.9504 50.2932 12.7817 49.3927 10.5204 49.3927C8.2591 49.3927 6.09041 50.2932 4.49143 51.8961C2.89244 53.4991 1.99414 55.6732 1.99414 57.9401Z" stroke="#FF6B00" stroke-width="3" stroke-linecap="round" stroke-linejoin="round"/>
<path d="M40.363 57.9401C40.363 60.207 41.2613 62.381 42.8603 63.984C44.4593 65.5869 46.628 66.4874 48.8893 66.4874C51.1506 66.4874 53.3193 65.5869 54.9183 63.984C56.5173 62.381 57.4156 60.207 57.4156 57.9401C57.4156 55.6732 56.5173 53.4991 54.9183 51.8961C53.3193 50.2932 51.1506 49.3927 48.8893 49.3927C46.628 49.3927 44.4593 50.2932 42.8603 51.8961C41.2613 53.4991 40.363 55.6732 40.363 57.9401Z" stroke="#FF6B00" stroke-width="3" stroke-linecap="round" stroke-linejoin="round"/>
<path d="M48.8897 66.4871H10.5215" stroke="#FF6B00" stroke-width="3" stroke-linecap="round" stroke-linejoin="round"/>
<path d="M10.5215 49.3927H48.8897" stroke="#FF6B00" stroke-width="3" stroke-linecap="round" stroke-linejoin="round"/>
<path d="M27.5723 36.5713V15.2028H36.0985C39.4905 15.2028 42.7435 16.5536 45.142 18.958C47.5405 21.3624 48.8879 24.6235 48.8879 28.0239V49.3924" stroke="#FF6B00" stroke-width="3" stroke-linecap="round" stroke-linejoin="round"/>
<path d="M14.7832 49.3926V40.8452C14.7832 39.7117 15.2324 38.6247 16.0318 37.8232C16.8313 37.0217 17.9157 36.5715 19.0463 36.5715H48.8883" stroke="#FF6B00" stroke-width="3" stroke-linecap="round" stroke-linejoin="round"/>
<path d="M74.4692 32.2975V2.38162L48.8904 32.2975" stroke="#FF6B00" stroke-width="3" stroke-linecap="round" stroke-linejoin="round"/>
</svg>
