<svg width="86" height="68" viewBox="0 0 86 68" fill="none" xmlns="http://www.w3.org/2000/svg">
<path d="M2.01746 48.0302C2.01746 52.8798 3.94397 57.5308 7.37319 60.9601C10.8024 64.3893 15.4534 66.3158 20.3031 66.3158C25.1527 66.3158 29.8037 64.3893 33.2329 60.9601C36.6622 57.5308 38.5887 52.8798 38.5887 48.0302C38.5887 43.1805 36.6622 38.5295 33.2329 35.1003C29.8037 31.6711 25.1527 29.7446 20.3031 29.7446C15.4534 29.7446 10.8024 31.6711 7.37319 35.1003C3.94397 38.5295 2.01746 43.1805 2.01746 48.0302Z" stroke="#FF6B00" stroke-width="3" stroke-linecap="round" stroke-linejoin="round"/>
<path d="M20.3013 48.0303V48.0746" stroke="#FF6B00" stroke-width="3" stroke-linecap="round" stroke-linejoin="round"/>
<path d="M66.0186 57.1731C66.0186 59.598 66.9818 61.9235 68.6964 63.6381C70.411 65.3527 72.7365 66.3159 75.1614 66.3159C77.5862 66.3159 79.9117 65.3527 81.6263 63.6381C83.3409 61.9235 84.3042 59.598 84.3042 57.1731C84.3042 54.7483 83.3409 52.4228 81.6263 50.7082C79.9117 48.9936 77.5862 48.0303 75.1614 48.0303C72.7365 48.0303 70.411 48.9936 68.6964 50.7082C66.9818 52.4228 66.0186 54.7483 66.0186 57.1731Z" stroke="#FF6B00" stroke-width="3" stroke-linecap="round" stroke-linejoin="round"/>
<path d="M36.302 57.1728H66.0161" stroke="#FF6B00" stroke-width="3" stroke-linecap="round" stroke-linejoin="round"/>
<path d="M79.7323 48.9443V29.7444C79.7323 28.532 79.2507 27.3692 78.3934 26.5119C77.5361 25.6546 76.3733 25.173 75.1609 25.173H47.7325L38.5897 2.31595H11.1613V32.0301" stroke="#FF6B00" stroke-width="3" stroke-linecap="round" stroke-linejoin="round"/>
<path d="M70.5875 2.31595H66.0161C64.8037 2.31595 63.6409 2.79758 62.7836 3.65488C61.9263 4.51219 61.4447 5.67494 61.4447 6.88735V25.173" stroke="#FF6B00" stroke-width="3" stroke-linecap="round" stroke-linejoin="round"/>
</svg>
