<svg width="87" height="68" viewBox="0 0 87 68" fill="none" xmlns="http://www.w3.org/2000/svg">
<path d="M11.521 56.8724C11.521 59.3013 12.4835 61.6306 14.1967 63.3481C15.9099 65.0655 18.2335 66.0303 20.6563 66.0303C23.0791 66.0303 25.4027 65.0655 27.1159 63.3481C28.8291 61.6306 29.7916 59.3013 29.7916 56.8724C29.7916 54.4436 28.8291 52.1142 27.1159 50.3968C25.4027 48.6794 23.0791 47.7145 20.6563 47.7145C18.2335 47.7145 15.9099 48.6794 14.1967 50.3968C12.4835 52.1142 11.521 54.4436 11.521 56.8724Z" stroke="#FF6B00" stroke-width="3" stroke-linecap="round" stroke-linejoin="round"/>
<path d="M57.1973 56.8724C57.1973 59.3013 58.1597 61.6306 59.8729 63.3481C61.5861 65.0655 63.9097 66.0303 66.3326 66.0303C68.7554 66.0303 71.079 65.0655 72.7922 63.3481C74.5054 61.6306 75.4678 59.3013 75.4678 56.8724C75.4678 54.4436 74.5054 52.1142 72.7922 50.3968C71.079 48.6794 68.7554 47.7145 66.3326 47.7145C63.9097 47.7145 61.5861 48.6794 59.8729 50.3968C58.1597 52.1142 57.1973 54.4436 57.1973 56.8724Z" stroke="#FF6B00" stroke-width="3" stroke-linecap="round" stroke-linejoin="round"/>
<path d="M11.5201 56.8721H2.38477V6.50351C2.38477 5.28909 2.866 4.12442 3.7226 3.2657C4.5792 2.40697 5.741 1.92455 6.95241 1.92455H48.0612V56.8721M29.7906 56.8721H57.1965M75.4671 56.8721H84.6024V29.3983M84.6024 29.3983H48.0612M84.6024 29.3983L70.8994 6.50351H48.0612" stroke="#FF6B00" stroke-width="3" stroke-linecap="round" stroke-linejoin="round"/>
</svg>
